<svg xmlns="http://www.w3.org/2000/svg" version="1.1" xmlns:xlink="http://www.w3.org/1999/xlink" xmlns:svgjs="http://svgjs.com/svgjs" width="512" height="512" x="0" y="0" viewBox="0 0 24 24" style="enable-background:new 0 0 512 512" xml:space="preserve" class=""><g><g data-name="Layer 2"><path d="M20.16 16a2.76 2.76 0 0 0-.94-2.33 3 3 0 0 1-1-1.71l-.61-3.67A5.68 5.68 0 0 0 13 3.59V3a1 1 0 0 0-2 0v.59a5.68 5.68 0 0 0-4.64 4.69L5.74 12a2.88 2.88 0 0 1-.93 1.68l-.09.08a2.72 2.72 0 0 0 1.8 4.76h10.92A2.73 2.73 0 0 0 20.16 16zM12 22a3 3 0 0 0 3-2.5H9.05A3 3 0 0 0 12 22z" fill="#ffffff" data-original="#000000" class=""></path></g></g></svg>