<svg xmlns="http://www.w3.org/2000/svg" version="1.1" xmlns:xlink="http://www.w3.org/1999/xlink" xmlns:svgjs="http://svgjs.com/svgjs" width="512" height="512" x="0" y="0" viewBox="0 0 512 512" style="enable-background:new 0 0 512 512" xml:space="preserve" class=""><g><linearGradient id="a" x1="43.93" x2="468.07" y1="43.93" y2="468.07" gradientUnits="userSpaceOnUse"><stop stop-opacity="1" stop-color="#730f7d" offset="0"></stop><stop stop-opacity="1" stop-color="#ae0002" offset="1"></stop></linearGradient><path fill="url(#a)" d="M362 0H150C67.16 0 0 67.16 0 150v212c0 82.84 67.16 150 150 150h212c82.84 0 150-67.16 150-150V150C512 67.16 444.84 0 362 0zm100 362c0 55.14-44.86 100-100 100H150c-55.14 0-100-44.86-100-100V150C50 94.86 94.86 50 150 50h212c55.14 0 100 44.86 100 100zm-78.61-106c0 12.13-9.83 21.96-21.96 21.96h-83.46v83.46c0 12.13-9.83 21.96-21.96 21.96s-21.96-9.83-21.96-21.96v-83.46h-83.46c-12.13 0-21.96-9.83-21.96-21.96s9.83-21.96 21.96-21.96h83.46v-83.46c0-12.13 9.83-21.96 21.96-21.96s21.96 9.83 21.96 21.96v83.46h83.46c12.13 0 21.96 9.83 21.96 21.96z" data-name="39" data-original="url(#a)" class=""></path></g></svg>