<svg xmlns="http://www.w3.org/2000/svg" version="1.1" xmlns:xlink="http://www.w3.org/1999/xlink" xmlns:svgjs="http://svgjs.com/svgjs" width="512" height="512" x="0" y="0" viewBox="0 0 496 496" style="enable-background:new 0 0 512 512" xml:space="preserve" class=""><g><path fill="#e93d5b" d="M400 112h-80c-17.672 0-32-14.328-32-32V0zm0 0" data-original="#e93d5b" class=""></path><path fill="#fa5c66" d="M400 112v352c0 17.672-14.328 32-32 32H32c-17.672 0-32-14.328-32-32V32C0 14.328 14.328 0 32 0h256v80c0 17.672 14.328 32 32 32zm0 0" data-original="#fa5c66" class=""></path><g fill="#f1f2f2"><path d="M146.344 269.656a8 8 0 0 0 11.312-11.312L123.312 224l34.344-34.344a8 8 0 0 0-11.312-11.312L112 212.688l-34.344-34.344a8 8 0 0 0-11.312 11.312L100.688 224l-34.344 34.344a8 8 0 1 0 11.312 11.312L112 235.312zM333.656 178.344a8.004 8.004 0 0 0-11.312 0L288 212.688l-34.344-34.344a8 8 0 0 0-11.312 11.312L276.688 224l-34.344 34.344a8 8 0 1 0 11.312 11.312L288 235.312l34.344 34.344a8 8 0 0 0 11.312-11.312L299.312 224l34.344-34.344a8.004 8.004 0 0 0 0-11.312zM200 304c-61.828.066-111.934 50.172-112 112a8 8 0 0 0 16 0c0-53.02 42.98-96 96-96s96 42.98 96 96a8 8 0 0 0 16 0c-.066-61.828-50.172-111.934-112-112zm0 0" fill="#f1f2f2" data-original="#f1f2f2"></path></g></g></svg>