<svg xmlns="http://www.w3.org/2000/svg" version="1.1" xmlns:xlink="http://www.w3.org/1999/xlink" xmlns:svgjs="http://svgjs.com/svgjs" width="512" height="512" x="0" y="0" viewBox="0 0 512 512" style="enable-background:new 0 0 512 512" xml:space="preserve" class=""><g><path fill="#ff4a4a" d="M256 422c-24.853 0-45 20.147-45 45s20.147 45 45 45 45-20.147 45-45-20.147-45-45-45z" data-original="#ff8659" class=""></path><path fill="#ff4a4a" d="M301 467c0-24.853-20.147-45-45-45v90c24.853 0 45-20.147 45-45z" data-original="#ff4a4a" class=""></path><path fill="#ff4a4a" d="M256 0c-24.853 0-45 20.147-45 45v299c0 24.853 20.147 45 45 45s45-20.147 45-45V45c0-24.853-20.147-45-45-45z" data-original="#ff8659" class=""></path><path fill="#ff4a4a" d="M301 344V45c0-24.853-20.147-45-45-45v389c24.853 0 45-20.147 45-45z" data-original="#ff4a4a" class=""></path></g></svg>