<svg xmlns="http://www.w3.org/2000/svg" version="1.1" xmlns:xlink="http://www.w3.org/1999/xlink" xmlns:svgjs="http://svgjs.com/svgjs" width="512" height="512" x="0" y="0" viewBox="0 0 32 32" style="enable-background:new 0 0 512 512" xml:space="preserve" class=""><g><linearGradient id="a" x1="2.17" x2="30" y1="16" y2="16" gradientUnits="userSpaceOnUse"><stop offset="0" stop-color="#f2551c"></stop><stop offset="1" stop-color="#ffd432"></stop></linearGradient><path fill="url(#a)" d="M30 16a13 13 0 0 1-23.46 7.72l1.61-1.19a11 11 0 1 0-1.67-9.71l1-.65 1.12 1.66-3 2A1 1 0 0 1 5 16a1 1 0 0 1-.83-.44l-2-3 1.66-1.12.68 1A13 13 0 0 1 30 16zM16 9v7a1 1 0 0 0 .29.71l3 3 1.42-1.42-2.71-2.7V9z" data-name="03 History, Recent" data-original="url(#a)" class=""></path></g></svg>