<svg xmlns="http://www.w3.org/2000/svg" version="1.1" xmlns:xlink="http://www.w3.org/1999/xlink" xmlns:svgjs="http://svgjs.com/svgjs" width="512" height="512" x="0" y="0" viewBox="0 0 512 512" style="enable-background:new 0 0 512 512" xml:space="preserve" class=""><g><path fill="#c193dc" d="M419.449 50.282H92.551c-22.795 0-43.425 9.238-58.354 24.177-14.939 14.94-24.177 35.57-24.177 58.365 0 45.579 36.952 82.531 82.531 82.531h326.898c22.795 0 43.425-9.238 58.354-24.177 14.939-14.929 24.177-35.569 24.177-58.354 0-45.589-36.952-82.542-82.531-82.542z" data-original="#c193dc" class=""></path><path fill="#ffdcd5" d="M467.026 270.281h-.836c-7.83 0-14.635 4.38-18.105 10.823v-4.733c0-10.755-9.267-19.474-20.699-19.475-9.389 0-17.307 5.886-19.84 13.947-2.596-8.061-10.711-13.947-20.333-13.947-8.728 0-16.219 4.843-19.475 11.758v-50.263c0-11.266-9.133-20.398-20.398-20.398-11.266 0-20.398 9.133-20.398 20.398v121.232l-18.544-18.065c-8.403-8.187-21.806-8.164-30.182.051l-.384.376c-8.522 8.358-8.2 21.144-1.179 30.666 20.765 28.164 51.512 70.879 51.512 70.879v29.344a8.842 8.842 0 0 0 8.842 8.842h108.629a8.842 8.842 0 0 0 8.842-8.842v-21.715a126.417 126.417 0 0 0 33.1-85.283v-55.043c.002-11.35-9.2-20.552-20.552-20.552z" data-original="#ffdcd5"></path><path fill="#ff7d97" d="M146.988 118.646c.044 5.62-2.312 11.58-6.519 15.74l-31.479 31.479-31.48-31.479c-8.568-8.25-8.679-23.042 0-31.479a22.188 22.188 0 0 1 15.74-6.519 22.188 22.188 0 0 1 15.739 6.519 22.188 22.188 0 0 1 15.74-6.519 22.192 22.192 0 0 1 15.74 6.519c4.108 4.085 6.522 9.82 6.519 15.739z" data-original="#ff7d97"></path><path d="M467.026 260.262h-.837c-4.857 0-9.45 1.144-13.532 3.168-4.803-9.792-14.873-16.552-26.496-16.552-7.459 0-14.275 2.789-19.475 7.371-5.199-4.582-12.016-7.371-19.475-7.371-3.307 0-6.485.555-9.455 1.564v-23.067h41.691c24.727 0 47.968-9.629 65.436-27.11C502.371 180.792 512 157.551 512 132.823c0-51.038-41.519-92.561-92.551-92.561H92.551c-24.727 0-47.968 9.629-65.439 27.112C9.629 84.859 0 108.102 0 132.823c0 51.033 41.518 92.551 92.551 92.551h80.981c5.534 0 10.02-4.486 10.02-10.02s-4.486-10.02-10.02-10.02H92.551c-39.983 0-72.512-32.528-72.512-72.512 0-19.369 7.544-37.58 21.245-51.281 13.688-13.697 31.895-21.24 51.267-21.24h326.898c39.983 0 72.512 32.533 72.512 72.522 0 19.372-7.543 37.579-21.245 51.272-13.688 13.697-31.895 21.24-51.267 21.24h-44.62a30.459 30.459 0 0 0-5.98-8.452c-5.745-5.745-13.384-8.909-21.509-8.909-12.101 0-22.572 7.105-27.467 17.361h-56.514c-5.533 0-10.02 4.486-10.02 10.02s4.486 10.02 10.02 10.02h53.564v90.5l-1.532-1.493c-12.204-11.889-32.027-11.853-44.19.075l-.383.376c-11.6 11.376-12.537 29.782-2.229 43.764 17.551 23.805 42.549 58.444 49.558 68.167l-.001 26.111c0 10.4 8.462 18.862 18.862 18.862h108.629c10.4 0 18.862-8.461 18.862-18.862v-17.91c21.374-24.78 33.1-56.26 33.1-89.088v-55.044c0-16.856-13.714-30.571-30.573-30.571zm10.534 85.616c0 29.132-10.824 57.019-30.477 78.523a10.016 10.016 0 0 0-2.623 6.759v20.537H338.185l.001-28.166c0-2.101-.66-4.149-1.887-5.854-.308-.428-31.019-43.084-51.58-70.971-3.713-5.037-5.113-12.423.131-17.567l.384-.376c4.451-4.365 11.707-4.378 16.174-.027l18.543 18.065a10.021 10.021 0 0 0 17.012-7.177V218.392c0-5.723 4.656-10.379 10.379-10.379 2.773 0 5.379 1.08 7.34 3.04a10.31 10.31 0 0 1 3.039 7.339l.001 86.909c0 5.534 4.486 10.02 10.02 10.02s10.02-4.486 10.02-10.02v-28.93c0-5.213 4.241-9.455 9.454-9.455s9.455 4.242 9.455 9.455v28.93c0 5.534 4.486 10.02 10.02 10.02s10.02-4.486 10.02-10.02v-28.93c0-5.213 4.242-9.455 9.455-9.455s9.455 4.242 9.455 9.455v28.93c0 5.534 4.486 10.02 10.02 10.02s10.02-4.486 10.02-10.02v-14.467c0-5.808 4.725-10.534 10.533-10.534h.837c5.808 0 10.533 4.726 10.533 10.534v55.044z" fill="#000000" data-original="#000000" class=""></path><path d="M377.568 175.884c5.533 0 10.02-4.486 10.02-10.02v-33.988l26.454 38.307c2.878 4.153 7.702 5.912 12.289 4.475 4.668-1.459 7.684-5.787 7.684-11.026V99.611c0-5.534-4.486-10.02-10.02-10.02s-10.02 4.486-10.02 10.02v35.211l-28.162-40.781a10.02 10.02 0 0 0-18.264 5.694v66.13c0 5.533 4.486 10.019 10.019 10.019zM354.189 165.864V99.611c0-5.534-4.486-10.02-10.02-10.02s-10.02 4.486-10.02 10.02v66.253c0 5.534 4.486 10.02 10.02 10.02s10.02-4.486 10.02-10.02zM325.111 132.738c0-23.791-19.355-43.146-43.147-43.146-23.791 0-43.146 19.355-43.146 43.146s19.355 43.146 43.146 43.146 43.147-19.355 43.147-43.146zm-66.254 0c0-12.741 10.366-23.107 23.107-23.107 12.742 0 23.108 10.366 23.108 23.107s-10.366 23.107-23.108 23.107c-12.741 0-23.107-10.366-23.107-23.107zM108.989 90.448c-4.755-2.663-10.138-4.08-15.739-4.08-8.599 0-16.685 3.34-22.776 9.405-6.028 5.888-9.472 14.255-9.452 22.967.021 8.678 3.468 16.978 9.463 22.79l31.419 31.419c1.956 1.956 4.521 2.934 7.085 2.934s5.129-.978 7.085-2.934l31.438-31.439c6.001-5.932 9.549-14.492 9.495-22.902-.007-8.515-3.459-16.826-9.454-22.787-6.096-6.096-14.202-9.454-22.824-9.454-5.601.001-10.983 1.417-15.74 4.081zm27.979 28.192v.084c.023 3.033-1.368 6.384-3.586 8.576l-24.394 24.394L84.595 127.3a8.53 8.53 0 0 0-.136-.133c-2.152-2.071-3.39-5.161-3.398-8.476-.008-3.338 1.243-6.473 3.432-8.601l.101-.099c2.311-2.312 5.385-3.585 8.655-3.585s6.343 1.273 8.654 3.584a10.02 10.02 0 0 0 14.17.001c2.311-2.312 5.385-3.585 8.655-3.585s6.343 1.273 8.675 3.605c2.234 2.222 3.567 5.447 3.565 8.629z" fill="#000000" data-original="#000000" class=""></path><circle cx="218.446" cy="215.355" r="10.02" fill="#000000" data-original="#000000" class=""></circle><path d="M207.352 175.844c-4.216 0-8.564-1.211-12.807-3.622-4.863-2.764-8.073-6.219-8.667-6.884-3.688-4.125-3.335-10.459.791-14.148 4.107-3.673 10.404-3.338 14.099.737 1.402 1.507 5.498 4.685 7.381 3.653.97-.529 1.596-1.698 1.596-2.977V99.652c0-5.534 4.486-10.02 10.02-10.02s10.02 4.486 10.02 10.02v52.953c0 8.635-4.612 16.515-12.035 20.567-3.27 1.783-6.786 2.672-10.398 2.672z" fill="#000000" data-original="#000000" class=""></path></g></svg>