<svg xmlns="http://www.w3.org/2000/svg" version="1.1" xmlns:xlink="http://www.w3.org/1999/xlink" xmlns:svgjs="http://svgjs.com/svgjs" width="512" height="512" x="0" y="0" viewBox="0 0 512 512" style="enable-background:new 0 0 512 512" xml:space="preserve" class=""><g><linearGradient id="a" x1="81.334" x2="440.595" y1="488.512" y2="129.25" gradientUnits="userSpaceOnUse"><stop offset="0" stop-color="#fcc60e"></stop><stop offset="1" stop-color="#e92e29"></stop></linearGradient><path fill="url(#a)" d="M142.76 270.872c-42.553 0-77.172 34.619-77.172 77.172 0 42.554 34.619 77.173 77.172 77.173 42.554 0 77.173-34.619 77.173-77.173 0-42.553-34.62-77.172-77.173-77.172zm0 138.345c-33.73 0-61.172-27.442-61.172-61.173s27.441-61.172 61.172-61.172 61.173 27.441 61.173 61.172-27.443 61.173-61.173 61.173zm137.635-86.876-18.477-7.112a122.816 122.816 0 0 0-11.701-28.227l8.041-18.105a8 8 0 0 0-1.655-8.904l-25.792-25.791a8.004 8.004 0 0 0-8.903-1.654l-18.112 8.044a122.77 122.77 0 0 0-28.217-11.698l-7.115-18.482a8 8 0 0 0-7.466-5.126h-36.475a8 8 0 0 0-7.466 5.126l-7.114 18.482a122.806 122.806 0 0 0-28.217 11.698l-18.112-8.044a7.996 7.996 0 0 0-8.904 1.654l-25.792 25.792a8 8 0 0 0-1.654 8.904l8.043 18.11a122.695 122.695 0 0 0-11.699 28.22l-18.48 7.113A7.998 7.998 0 0 0 0 329.807v36.476a8 8 0 0 0 5.127 7.466l18.477 7.111a122.81 122.81 0 0 0 11.7 28.227l-8.041 18.105a8 8 0 0 0 1.655 8.904l25.793 25.792a8 8 0 0 0 8.903 1.654l18.112-8.045a122.74 122.74 0 0 0 28.216 11.699l7.115 18.482a8 8 0 0 0 7.466 5.126h36.475a8 8 0 0 0 7.466-5.126l7.112-18.478a122.787 122.787 0 0 0 28.227-11.701l18.105 8.042a7.995 7.995 0 0 0 8.904-1.655l25.791-25.793a7.999 7.999 0 0 0 1.654-8.903l-8.045-18.112a122.702 122.702 0 0 0 11.699-28.216l18.482-7.115a8 8 0 0 0 5.126-7.466v-36.475a7.996 7.996 0 0 0-5.124-7.465zm-10.874 38.448-17.206 6.623a7.996 7.996 0 0 0-4.908 5.614 106.89 106.89 0 0 1-12.992 31.334 8.002 8.002 0 0 0-.499 7.441l7.49 16.863-18.022 18.024-16.857-7.487a7.999 7.999 0 0 0-7.442.5 106.88 106.88 0 0 1-31.343 12.993 7.996 7.996 0 0 0-5.614 4.908l-6.621 17.201h-25.489l-6.623-17.206a7.996 7.996 0 0 0-5.614-4.908 106.837 106.837 0 0 1-31.334-12.992 8.005 8.005 0 0 0-7.441-.499l-16.863 7.49-18.024-18.024 7.486-16.856a7.999 7.999 0 0 0-.5-7.441 106.9 106.9 0 0 1-12.992-31.344 7.998 7.998 0 0 0-4.909-5.614l-17.2-6.62V335.3l17.204-6.622a8 8 0 0 0 4.909-5.614 106.819 106.819 0 0 1 12.99-31.336 8.001 8.001 0 0 0 .5-7.442l-7.488-16.862 18.023-18.023 16.864 7.489a7.996 7.996 0 0 0 7.441-.499 106.877 106.877 0 0 1 31.334-12.991 7.996 7.996 0 0 0 5.614-4.908l6.623-17.206h25.489l6.623 17.206a7.996 7.996 0 0 0 5.614 4.908 106.866 106.866 0 0 1 31.334 12.991 7.997 7.997 0 0 0 7.441.499l16.864-7.489 18.023 18.023-7.486 16.856a8.002 8.002 0 0 0 .499 7.441 106.89 106.89 0 0 1 12.994 31.344 7.996 7.996 0 0 0 4.908 5.614l17.2 6.621zm141.314-98.5c-28.66 0-51.978 23.317-51.978 51.978s23.317 51.978 51.978 51.978 51.978-23.317 51.978-51.978-23.318-51.978-51.978-51.978zm0 87.955c-19.838 0-35.978-16.14-35.978-35.978s16.14-35.978 35.978-35.978 35.978 16.14 35.978 35.978-16.14 35.978-35.978 35.978zm96.039-56.052-11.621-4.473a87.283 87.283 0 0 0-7.371-17.781l5.058-11.388a8 8 0 0 0-1.655-8.904l-17.831-17.83a8 8 0 0 0-8.903-1.654l-11.392 5.06a87.404 87.404 0 0 0-17.774-7.37l-4.475-11.624a8 8 0 0 0-7.466-5.126h-25.217a7.999 7.999 0 0 0-7.466 5.126l-4.476 11.624a87.357 87.357 0 0 0-17.774 7.37l-11.392-5.06a7.995 7.995 0 0 0-8.904 1.654l-17.831 17.831a8 8 0 0 0-1.654 8.904l5.06 11.391a87.393 87.393 0 0 0-7.371 17.775l-11.623 4.475a8 8 0 0 0-5.126 7.466v25.217a8 8 0 0 0 5.126 7.466l11.621 4.474a87.27 87.27 0 0 0 7.371 17.78l-5.058 11.388a8 8 0 0 0 1.654 8.904l17.831 17.831a8.004 8.004 0 0 0 8.904 1.654l11.393-5.061a87.348 87.348 0 0 0 17.774 7.37l4.475 11.624a8 8 0 0 0 7.466 5.126h25.217a8 8 0 0 0 7.466-5.126l4.474-11.62a87.317 87.317 0 0 0 17.78-7.371l11.388 5.058a7.996 7.996 0 0 0 8.904-1.655l17.83-17.832a7.999 7.999 0 0 0 1.654-8.903l-5.06-11.392a87.348 87.348 0 0 0 7.37-17.774l11.624-4.475a8 8 0 0 0 5.126-7.466v-25.217a8.001 8.001 0 0 0-5.126-7.466zM496 321.382l-10.313 3.97a7.999 7.999 0 0 0-4.908 5.613 71.434 71.434 0 0 1-8.683 20.94 8.002 8.002 0 0 0-.499 7.441l4.489 10.109-10.063 10.063-10.104-4.488a7.999 7.999 0 0 0-7.442.5 71.403 71.403 0 0 1-20.945 8.684 7.997 7.997 0 0 0-5.613 4.908l-3.969 10.309h-14.23l-3.97-10.313a7.999 7.999 0 0 0-5.613-4.908 71.434 71.434 0 0 1-20.94-8.683 8 8 0 0 0-7.441-.499l-10.11 4.49-10.063-10.063 4.488-10.105a8 8 0 0 0-.5-7.443 71.38 71.38 0 0 1-8.684-20.944 7.997 7.997 0 0 0-4.908-5.613l-10.31-3.969v-14.23l10.312-3.97a7.999 7.999 0 0 0 4.908-5.613 71.428 71.428 0 0 1 8.683-20.94 8.001 8.001 0 0 0 .5-7.442l-4.489-10.108 10.063-10.063 10.109 4.489a7.996 7.996 0 0 0 7.441-.499 71.423 71.423 0 0 1 20.94-8.683 7.997 7.997 0 0 0 5.613-4.908l3.97-10.313h14.231l3.97 10.313a7.997 7.997 0 0 0 5.613 4.908 71.423 71.423 0 0 1 20.94 8.683 7.997 7.997 0 0 0 7.441.499l10.109-4.489 10.063 10.063-4.487 10.104a8.001 8.001 0 0 0 .5 7.442 71.378 71.378 0 0 1 8.682 20.944 8 8 0 0 0 4.909 5.614l10.31 3.969zM291.432 69.369c-28.161 0-51.071 22.91-51.071 51.071 0 28.16 22.91 51.07 51.071 51.07 28.16 0 51.07-22.91 51.07-51.07 0-28.161-22.91-51.071-51.07-51.071zm0 86.142c-19.339 0-35.071-15.732-35.071-35.07 0-19.339 15.732-35.071 35.071-35.071 19.338 0 35.07 15.732 35.07 35.071 0 19.337-15.732 35.07-35.07 35.07zm24.166 47.743a85.575 85.575 0 0 0 17.297-7.172l11.078 4.921a8 8 0 0 0 8.904-1.655l17.463-17.464a7.999 7.999 0 0 0 1.654-8.903l-4.922-11.082a85.594 85.594 0 0 0 7.169-17.292l11.309-4.353a8 8 0 0 0 5.126-7.466v-24.696a8 8 0 0 0-5.126-7.466l-11.305-4.352a85.607 85.607 0 0 0-7.172-17.298l4.921-11.078a8 8 0 0 0-1.655-8.904l-17.464-17.463a8.004 8.004 0 0 0-8.903-1.654L332.89 44.8a85.61 85.61 0 0 0-17.291-7.169l-4.353-11.309a7.999 7.999 0 0 0-7.466-5.127h-24.697a8 8 0 0 0-7.466 5.126l-4.354 11.31a85.601 85.601 0 0 0-17.29 7.169l-11.083-4.923a7.996 7.996 0 0 0-8.904 1.655l-17.463 17.464a7.999 7.999 0 0 0-1.654 8.903l4.921 11.081a85.663 85.663 0 0 0-7.17 17.293l-11.307 4.353a8 8 0 0 0-5.126 7.466v24.696a7.999 7.999 0 0 0 5.126 7.466l11.305 4.352a85.637 85.637 0 0 0 7.171 17.298l-4.92 11.077a7.999 7.999 0 0 0 1.654 8.903l17.463 17.464a8 8 0 0 0 8.904 1.655l11.083-4.923a85.61 85.61 0 0 0 17.291 7.169l4.353 11.309a7.999 7.999 0 0 0 7.466 5.127h24.697a8 8 0 0 0 7.466-5.126zm-7.851-14.47a8 8 0 0 0-5.614 4.909l-3.846 9.991h-13.711l-3.847-9.994a7.998 7.998 0 0 0-5.614-4.909 69.77 69.77 0 0 1-20.46-8.483 7.997 7.997 0 0 0-7.441-.499l-9.798 4.352-9.694-9.695 4.349-9.792a8.002 8.002 0 0 0-.499-7.441 69.79 69.79 0 0 1-8.485-20.467 7.997 7.997 0 0 0-4.908-5.613l-9.99-3.846v-13.711l9.993-3.847a8 8 0 0 0 4.909-5.614 69.767 69.767 0 0 1 8.482-20.462 8.002 8.002 0 0 0 .499-7.441l-4.35-9.796 9.694-9.695 9.798 4.352a8 8 0 0 0 7.441-.499 69.775 69.775 0 0 1 20.459-8.483 7.996 7.996 0 0 0 5.614-4.908l3.848-9.995h13.711l3.847 9.994a7.998 7.998 0 0 0 5.614 4.909 69.77 69.77 0 0 1 20.46 8.483 8.005 8.005 0 0 0 7.441.499l9.797-4.352 9.695 9.694-4.35 9.793a8.001 8.001 0 0 0 .5 7.442 69.726 69.726 0 0 1 8.483 20.465 8 8 0 0 0 4.909 5.614l9.991 3.846v13.711l-9.994 3.848a7.996 7.996 0 0 0-4.908 5.614 69.804 69.804 0 0 1-8.482 20.459 7.999 7.999 0 0 0-.5 7.441l4.351 9.798-9.694 9.695-9.793-4.35a7.999 7.999 0 0 0-7.442.5 69.73 69.73 0 0 1-20.465 8.483z" data-original="url(#a)" class=""></path></g></svg>