<svg xmlns="http://www.w3.org/2000/svg" version="1.1" xmlns:xlink="http://www.w3.org/1999/xlink" xmlns:svgjs="http://svgjs.com/svgjs" width="512" height="512" x="0" y="0" viewBox="0 0 24 24" style="enable-background:new 0 0 512 512" xml:space="preserve" class=""><g><g data-name="Layer 57"><path fill="#e54f6d" d="m17.16 9.74-5.94 5.94a1 1 0 0 1-.7.29 1 1 0 0 1-.71-.29l-3-3a1 1 0 0 1 0-1.42 1 1 0 0 1 1.41 0l2.27 2.27 5.23-5.24a1 1 0 0 1 1.41 0 1 1 0 0 1 .03 1.45z" data-original="#e54f6d" class=""></path><path fill="#e54f6d" d="M12 1a11 11 0 1 0 11 11A11 11 0 0 0 12 1zm0 20a9 9 0 1 1 9-9 9 9 0 0 1-9 9z" data-original="#e54f6d" class=""></path><path fill="#f4d6dc" d="M12 3a9 9 0 1 0 9 9 9 9 0 0 0-9-9zm5.16 6.74-5.94 5.94a1 1 0 0 1-.7.29 1 1 0 0 1-.71-.29l-3-3a1 1 0 0 1 0-1.42 1 1 0 0 1 1.41 0l2.27 2.27 5.23-5.24a1 1 0 0 1 1.41 0 1 1 0 0 1 .03 1.45z" data-original="#f4d6dc" class=""></path></g></g></svg>